PathFileType	4	(X/Y/Z)	/Users/mathieubourgeois/Desktop/Analyse/Traitement/Sujet_04/Transformed_Static_Sujet_04_Tpose.trc
DataRate	CameraRate	NumFrames	NumMarkers	Units	OrigDataRate	OrigDataStartFrame	OrigNumFrames
120.000000	120.000000	6	36	mm	120.000000	222	296
Frame#	Time	RFHD			RANE			STRN			LANI			LKNE			T10			RHUM			RWRB			C7			LFWT			LTOE			RTOE			LWRA			LBWT			RBWT			RFWT			LKNI			RKNI			RKNE			LANE			RANI			LHEE			RHEE			LHUM			LRAD			RRAD			RWRA			LWRB			LFHD			LBHD			RBHD			RSHO			LSHO			CLAV			LCAR			RCAR			
		X1	Y1	Z1	X2	Y2	Z2	X3	Y3	Z3	X4	Y4	Z4	X5	Y5	Z5	X6	Y6	Z6	X7	Y7	Z7	X8	Y8	Z8	X9	Y9	Z9	X10	Y10	Z10	X11	Y11	Z11	X12	Y12	Z12	X13	Y13	Z13	X14	Y14	Z14	X15	Y15	Z15	X16	Y16	Z16	X17	Y17	Z17	X18	Y18	Z18	X19	Y19	Z19	X20	Y20	Z20	X21	Y21	Z21	X22	Y22	Z22	X23	Y23	Z23	X24	Y24	Z24	X25	Y25	Z25	X26	Y26	Z26	X27	Y27	Z27	X28	Y28	Z28	X29	Y29	Z29	X30	Y30	Z30	X31	Y31	Z31	X32	Y32	Z32	X33	Y33	Z33	X34	Y34	Z34	X35	Y35	Z35	X36	Y36	Z36	

223	1.85	-657.8439331054688	1780.489135742188	442.7554626464842	-778.7706909179688	91.31500244140626	190.2789916992187	-589.1498413085938	1329.254150390625	443.6951599121093	-553.7355346679688	99.91847229003908	240.3432617187499	-433.7935791015626	542.4487915039062	262.8890686035155	-587.698486328125	1316.206787109375	207.0103759765623	-1050.9111328125	1423.496704101562	305.9852294921873	-1325.842651367188	1507.018676757812	281.5661010742185	-597.3648681640625	1592.078735351562	266.374298095703	-465.1600036621094	1063.680419921875	396.4039306640624	-484.3232116699219	35.57077407836917	420.7860717773437	-763.4418334960938	36.79536819458011	426.5389404296874	120.0970993041992	1577.423828125	276.0656433105468	-531.19677734375	1111.026489257812	200.5683441162108	-661.6212768554688	1110.161499023438	191.350860595703	-759.864013671875	1075.850463867188	372.2450256347655	-553.0861206054688	500.6437072753906	262.9332885742186	-666.3557739257812	503.6513366699219	285.7171325683593	-779.4526977539062	547.097900390625	278.3977050781248	-466.021484375	85.48192596435548	191.0375061035156	-690.2001342773438	97.41912841796876	228.9669342041015	-525.9868774414062	63.18077468872071	152.6685638427734	-732.139404296875	71.98636627197267	150.3290557861327	-133.7148132324219	1439.81201171875	296.0728454589843	-133.153549194336	1485.959716796875	239.1741943359374	-1058.55810546875	1473.666381835938	256.4562683105466	-1309.512451171875	1552.92041015625	330.7471923828122	140.5462341308593	1500.623046875	260.1179199218749	-525.1489868164062	1775.427734375	430.6879882812498	-553.2820434570312	1734.593994140625	273.7544555664061	-689.439453125	1736.234375	295.194854736328	-741.6846923828125	1575.604614257812	289.3724670410154	-443.1433715820313	1589.98291015625	304.5522155761717	-587.1757202148438	1497.816284179688	399.5010375976561	233.1729888916015	1574.474609375	243.1190795898437	-1419.497924804688	1558.979125976562	299.0052185058591	
224	1.858333333333333	-657.9049682617188	1780.495483398438	442.8008728027342	-778.7872924804688	91.32119750976564	190.2726440429687	-589.187744140625	1329.277221679688	443.6855468749999	-553.726318359375	99.91970825195314	240.363540649414	-433.8086547851563	542.4653930664062	262.8881225585936	-587.7176513671875	1316.218017578125	206.9998626708983	-1050.9208984375	1423.446166992188	305.9458007812498	-1325.883178710938	1506.933837890625	281.4999389648435	-597.401611328125	1592.102416992188	266.3672485351561	-465.1529235839844	1063.68603515625	396.3636779785155	-484.3133850097657	35.57857513427737	420.7942199707031	-763.4384765625	36.79345321655276	426.5382690429686	120.0558090209961	1577.328369140625	276.1995544433593	-531.2222900390625	1111.027709960938	200.5404510498046	-662.2906494140625	1110.358520507812	191.1498718261717	-759.850341796875	1075.849609375	372.2554321289061	-553.0867919921875	500.6311340332031	262.9275512695311	-666.35205078125	503.64453125	285.6957702636718	-779.4547119140625	547.0901489257812	278.4036560058592	-466.1869201660156	85.84177398681642	190.8602905273437	-690.1969604492188	97.43077087402345	228.9715728759765	-525.9840087890625	63.17843627929688	152.6608734130859	-732.1593017578125	71.9817581176758	150.3339080810546	-133.7787628173828	1439.734252929688	296.037628173828	-133.1940612792969	1485.891967773438	239.1645050048827	-1058.5859375	1473.62255859375	256.4075927734373	-1309.5751953125	1552.8193359375	330.7311096191403	140.4807739257812	1500.590698242188	260.1247558593749	-525.20849609375	1775.41796875	430.7344360351561	-553.3369140625	1734.633544921875	273.7900085449217	-689.4976196289062	1736.283813476562	295.2124023437498	-741.702392578125	1575.613647460938	289.3776245117185	-443.1636657714844	1590.011596679688	304.5983276367186	-587.2135620117188	1497.845825195312	399.5585021972655	233.1613311767578	1574.378051757812	243.3500518798828	-1419.5595703125	1558.8232421875	298.9954833984372	
225	1.866666666666667	-657.99462890625	1780.516479492188	442.8600158691405	-778.7705078125	91.31790924072267	190.2752838134765	-589.21630859375	1329.285888671875	443.6835327148436	-553.72119140625	99.9188690185547	240.3760833740234	-433.8042602539063	542.4591674804688	262.8472595214843	-587.8871459960938	1316.318481445312	208.1050567626951	-1050.952514648438	1423.407104492188	305.8733215332029	-1325.9267578125	1506.859375	281.4190979003903	-597.4395141601562	1592.110961914062	266.3755493164061	-465.1361694335938	1063.703002929688	396.3097839355468	-484.3102111816407	35.57668304443362	420.7888488769531	-763.4442749023438	36.80145263671878	426.539337158203	120.0185928344726	1577.235961914062	276.326202392578	-531.2355346679688	1111.030029296875	200.5017700195311	-662.3077392578125	1110.368896484375	191.1311645507811	-759.8477783203125	1075.8515625	372.2604064941405	-553.088134765625	500.6393432617188	262.923126220703	-666.3532104492188	503.6586608886719	285.6965026855468	-779.448974609375	547.0987548828125	278.3982849121092	-466.1939697265625	85.85080718994142	190.8472900390624	-690.2030639648438	97.4362030029297	228.9779663085937	-525.98486328125	63.17990493774415	152.6516571044921	-732.1437377929688	71.99636077880861	150.3204193115234	-133.840576171875	1439.656005859375	296.0243530273436	-133.2368316650391	1485.826171875	239.160186767578	-1058.608154296875	1473.594604492188	256.3754882812498	-1309.625244140625	1552.744262695312	330.6617431640622	140.3998870849609	1500.741821289062	259.969512939453	-525.2698974609375	1775.411987304688	430.800811767578	-553.3950805664062	1734.668212890625	273.8329772949217	-689.554931640625	1736.327514648438	295.2530822753905	-741.7383422851562	1575.614013671875	289.3951110839841	-443.1761169433594	1590.0322265625	304.6477661132811	-587.24560546875	1497.876586914062	399.6021728515623	233.1664886474609	1574.274658203125	243.5631408691406	-1419.618774414062	1558.709350585938	298.9627380371091	
226	1.875	-658.0613403320312	1780.524780273438	442.8956604003905	-778.782470703125	91.31529998779298	190.2842407226562	-589.2401123046875	1329.304565429688	443.6727905273436	-553.7252197265625	99.91619110107423	240.3676605224609	-433.8049011230469	542.4539184570312	262.8207092285155	-587.892333984375	1316.335205078125	208.1202545166014	-1050.99267578125	1423.357788085938	305.818176269531	-1325.976928710938	1506.791870117188	281.3327941894528	-597.4816284179688	1592.128295898438	266.377471923828	-465.1207580566407	1063.710571289062	396.270050048828	-484.3085327148438	35.57761001586917	420.7882690429687	-763.439208984375	36.80265808105472	426.5453796386718	119.9918441772461	1577.169677734375	276.436065673828	-531.2593383789062	1111.035034179688	200.4761810302733	-661.7025146484375	1110.182006835938	191.2942657470702	-759.8294067382812	1075.861938476562	372.2769470214842	-553.0940551757812	500.6456604003906	262.8964233398436	-666.353759765625	503.6595153808594	285.6785278320311	-779.4498291015625	547.0962524414062	278.4112854003905	-466.0366516113281	85.49495697021486	191.0186767578124	-690.2014770507812	97.43051910400392	228.9682006835937	-525.9945678710938	63.19106674194337	152.6601562499999	-732.1455688476562	72.00254821777345	150.3221740722655	-133.8939666748047	1439.6083984375	296.019317626953	-133.2738342285157	1485.768188476562	239.1502532958983	-1058.64306640625	1473.5703125	256.3199157714841	-1309.676879882812	1552.670654296875	330.6184997558591	140.3691864013672	1500.678100585938	260.0495605468749	-525.3463134765625	1775.432250976562	430.8539123535155	-553.4475708007812	1734.706909179688	273.8818969726561	-689.603759765625	1736.347900390625	295.2828674316405	-741.780517578125	1575.625	289.4139404296873	-443.1885070800782	1590.057861328125	304.683135986328	-587.2791748046875	1497.91064453125	399.644561767578	233.1709289550781	1574.195190429688	243.7348937988281	-1419.663452148438	1558.607299804688	298.9265441894528	
227	1.883333333333333	-658.1688842773438	1780.5361328125	442.9318847656248	-778.78369140625	91.31227874755861	190.2713317871093	-589.28076171875	1329.322875976562	443.6819763183593	-553.7432861328125	99.91192626953126	240.3250427246093	-433.7991027832032	542.4750366210938	262.7760314941405	-587.9041137695312	1316.369506835938	208.1154479980467	-1051.030639648438	1423.325439453125	305.7552185058591	-1325.999755859375	1506.730224609375	281.2559814453122	-597.5142822265625	1592.141235351562	266.3927307128905	-465.0957031250001	1063.724609375	396.2146606445311	-484.3050537109376	35.58572769165042	420.7899780273437	-763.4432983398438	36.80738449096683	426.5379943847655	119.9617309570312	1577.10888671875	276.5221557617186	-531.2816162109375	1111.03271484375	200.4347686767577	-661.7447509765625	1110.19873046875	191.2778930664061	-759.829345703125	1075.8623046875	372.268096923828	-553.0951538085938	500.6394348144531	262.887481689453	-666.3413696289062	503.6639709472656	285.6734008789061	-779.4520874023438	547.0919799804688	278.4190368652342	-466.1931762695312	85.85401153564455	190.8451232910156	-690.2154541015625	97.43616485595705	228.9603729248046	-526.0064086914062	63.18241500854493	152.6629791259765	-732.1704711914062	71.9945526123047	150.3062438964843	-133.9420318603516	1439.556274414062	296.0371704101561	-133.3065032958985	1485.730590820312	239.1806030273436	-1058.659423828125	1473.537963867188	256.2910461425779	-1309.710205078125	1552.602661132812	330.5514526367185	140.3351287841797	1500.6201171875	260.1411132812499	-525.4550170898438	1775.454833984375	430.9309082031248	-553.5003662109375	1734.743896484375	273.9281311035155	-689.6473388671875	1736.364013671875	295.3083496093748	-741.8161010742188	1575.631469726562	289.3953552246091	-443.1973571777344	1590.081176757812	304.7255249023436	-587.2987060546875	1497.941650390625	399.677520751953	233.1554565429687	1574.127807617188	243.8931732177734	-1419.707153320312	1558.544067382812	298.8673400878903	
228	1.891666666666667	-658.2866821289062	1780.546875	442.9580688476561	-778.78564453125	91.31560516357423	190.274917602539	-589.31396484375	1329.342895507812	443.6791687011718	-553.7464599609375	99.91246032714845	240.3222656249999	-433.8089599609376	542.4843139648438	262.7642211914061	-587.9125366210938	1316.378540039062	208.1251983642576	-1051.054565429688	1423.288696289062	305.7149353027341	-1326.022216796875	1506.670166015625	281.2007751464841	-597.5427856445312	1592.155517578125	266.3916625976561	-465.0886840820313	1063.7216796875	396.1630249023436	-484.3012084960938	35.58720397949222	420.7882080078124	-763.4396362304688	36.80197906494143	426.5294799804686	119.9376831054687	1577.068725585938	276.6318359374999	-531.3021850585938	1111.047241210938	200.4122009277343	-661.7500610351562	1110.222045898438	191.2801361083983	-759.8161010742188	1075.864135742188	372.2721557617186	-553.0885620117188	500.6417236328125	262.8734130859374	-666.3497314453125	503.6666870117188	285.6563110351561	-779.4454956054688	547.0985107421875	278.409454345703	-466.2069396972656	85.85760498046876	190.8464050292968	-690.2059936523438	97.42122650146486	228.967544555664	-525.995849609375	63.18750381469727	152.6631317138671	-732.1598510742188	72.00441741943361	150.311538696289	-133.9797973632813	1439.523193359375	296.071075439453	-133.3313903808594	1485.717895507812	239.246368408203	-1058.692138671875	1473.500610351562	256.2531127929685	-1309.752319335938	1552.55126953125	330.4895019531247	140.3066864013672	1500.576171875	260.2477111816405	-525.53564453125	1775.481567382812	430.9890747070311	-553.5297241210938	1734.768188476562	273.9902038574217	-689.6971435546875	1736.363525390625	295.3265991210936	-741.8446655273438	1575.6396484375	289.4019470214841	-443.2145080566407	1590.117553710938	304.786651611328	-587.326904296875	1497.965942382812	399.7186279296873	233.1357879638672	1574.065063476562	244.0049896240234	-1419.728149414062	1558.472045898438	298.7922363281247	
